<svg width="15" height="15" viewBox="0 0 13 13" fill="none" xmlns="http://www.w3.org/2000/svg">
<path d="M11.9166 3.09816L9.42492 1.00732L8.72617 1.83607L11.2178 3.92691L11.9166 3.09816ZM4.26825 1.83607L3.57492 1.00732L1.08325 3.09274L1.782 3.92149L4.26825 1.83607ZM6.77075 4.33316H5.95825V7.58316L8.53117 9.12691L8.93742 8.46066L6.77075 7.17691V4.33316ZM6.49992 2.16649C3.80784 2.16649 1.62492 4.34941 1.62492 7.04149C1.62492 9.73357 3.80242 11.9165 6.49992 11.9165C9.192 11.9165 11.3749 9.73357 11.3749 7.04149C11.3749 4.34941 9.192 2.16649 6.49992 2.16649ZM6.49992 10.8332C4.40367 10.8332 2.70825 9.13774 2.70825 7.04149C2.70825 4.94524 4.40367 3.24982 6.49992 3.24982C8.59617 3.24982 10.2916 4.94524 10.2916 7.04149C10.2916 9.13774 8.59617 10.8332 6.49992 10.8332Z" fill="#323232"/>
</svg>
