<svg viewBox="0 0 54 24" fill="none" xmlns="http://www.w3.org/2000/svg">
<path d="M54 0H49.6493L49.3081 1.85915H38.8152L39.0711 0H34.7204L32.929 10.1408H52.1233L54 0ZM48.3697 6.92958H37.8768L38.2181 5.07042H48.7109L48.3697 6.92958Z" fill="#fff"/>
<path d="M36.1706 16.7324H31.8199L30.5403 23.5775H50.0758L50.7583 20.1127H35.5735L36.1706 16.7324Z" fill="#fff"/>
<path d="M33.9526 11.4085H31.4787L32.5877 5.40845C33.1849 1.85916 30.6256 0 27.128 0C23.6304 0 20.474 1.85916 19.7915 5.40845L18.7678 11.4085H17.6588L18.7678 5.40845C19.2796 1.85916 16.8057 0 13.3081 0C9.72514 0 6.56874 1.85916 5.97159 5.40845L4.26543 15.0423H8.61614H12.6256L11.9432 18.5915C11.7725 19.6901 10.7488 20.4507 9.63983 20.4507C8.53083 20.4507 7.76306 19.6056 7.93367 18.5915L8.10429 17.7465H3.75358L3.58296 18.5915C2.9858 22.0563 5.45974 24 8.95737 24C12.455 24 15.6114 22.1408 16.2939 18.5915L16.891 15.0423H18L17.4882 18.5915C16.891 22.0563 19.365 24 22.8626 24C26.3602 24 29.5166 22.1408 30.1991 18.5915L30.7962 15.0423H31.1375H39.6683L39.0711 18.4225H43.2512L43.8484 15.0423H52.2086L52.891 11.4085H33.9526ZM14.3318 5.40845L13.2228 11.4085H9.21329L10.3223 5.40845C10.4929 4.30986 11.5166 3.5493 12.6256 3.5493C13.8199 3.5493 14.5024 4.30986 14.3318 5.40845ZM25.8484 18.5915C25.6777 19.6901 24.6541 20.4507 23.545 20.4507C22.436 20.4507 21.6683 19.6056 21.8389 18.5915L22.436 15.0423H26.4455L25.8484 18.5915ZM28.1517 5.40845L27.0427 11.4085H23.0332L24.1422 5.40845C24.3128 4.30986 25.3365 3.5493 26.4455 3.5493C27.6398 3.5493 28.3223 4.30986 28.1517 5.40845Z" fill="#fff"/>
</svg>
