<svg preserveAspectRatio="none" viewBox="0 0 13 13" fill="none" xmlns="http://www.w3.org/2000/svg">
<path d="M6.49992 1.0835C4.40909 1.0835 2.70825 2.78433 2.70825 4.87516C2.70825 7.71891 6.49992 11.9168 6.49992 11.9168C6.49992 11.9168 10.2916 7.71891 10.2916 4.87516C10.2916 2.78433 8.59075 1.0835 6.49992 1.0835ZM6.49992 2.16683C7.09575 2.16683 7.58325 2.65433 7.58325 3.25016C7.58325 3.85141 7.09575 4.3335 6.49992 4.3335C5.90409 4.3335 5.41659 3.85141 5.41659 3.25016C5.41659 2.65433 5.90409 2.16683 6.49992 2.16683ZM6.49992 7.5835C5.59534 7.5835 4.79909 7.12308 4.33325 6.41891C4.34409 5.70391 5.7795 5.3085 6.49992 5.3085C7.22034 5.3085 8.65575 5.70391 8.66659 6.41891C8.20075 7.12308 7.4045 7.5835 6.49992 7.5835Z" fill="#323232"/>
</svg>
