<svg viewBox="0 0 12 12" fill="none" xmlns="http://www.w3.org/2000/svg">
<g clip-path="url(#clip0_1568_6048)">
<path d="M5.98513 11.9114C9.25793 11.9114 11.9111 9.2583 11.9111 5.9855C11.9111 2.7127 9.25793 0.0595703 5.98513 0.0595703C2.71233 0.0595703 0.0592041 2.7127 0.0592041 5.9855C0.0592041 9.2583 2.71233 11.9114 5.98513 11.9114Z" fill="white"/>
<path d="M10.9332 4.65247L9.77767 5.03766L7.4073 3.31914V1.18581L8.29619 0.563585C7.58507 0.267289 6.8147 0.119141 6.0147 0.119141C5.8073 0.119141 5.59989 0.119141 5.39248 0.14877L6.8147 1.15618V3.23025L4.23693 5.09692L2.57767 4.53396L2.54804 1.21544C1.12582 2.25247 0.207297 3.8821 0.118408 5.74877L2.22211 5.00803L4.26656 5.71914L5.09619 8.29692L4.23693 9.7784L1.74804 10.134C2.72582 11.1414 4.05915 11.8228 5.57026 11.9117L4.711 10.134L5.54063 8.6821H8.47396L9.15545 9.89692L8.4147 11.408C9.27396 11.0228 10.0147 10.4303 10.6073 9.71914L9.65915 9.57099L8.97767 8.38581L9.89619 5.60062L11.2888 5.12655L11.911 5.33396C11.8221 4.38581 11.4666 3.49692 10.9629 2.72655L10.9332 4.65247Z" fill="black"/>
<path d="M5.98513 11.9114C9.25793 11.9114 11.9111 9.2583 11.9111 5.9855C11.9111 2.7127 9.25793 0.0595703 5.98513 0.0595703C2.71233 0.0595703 0.0592041 2.7127 0.0592041 5.9855C0.0592041 9.2583 2.71233 11.9114 5.98513 11.9114Z" stroke="white" stroke-width="0.141975" stroke-miterlimit="10"/>
</g>
<defs>
<clipPath id="clip0_1568_6048">
<rect width="12" height="12" fill="white"/>
</clipPath>
</defs>
</svg>
