<svg viewBox="0 0 276 354" fill="none" xmlns="http://www.w3.org/2000/svg">
<rect width="275.213" height="354" rx="4" fill="#617F41"/>
<rect x="16.189" y="53.9634" width="243.915" height="32.378" fill="#58733B"/>
<rect x="16.189" y="103.61" width="243.915" height="32.378" fill="#58733B"/>
<rect x="16.189" y="153.256" width="243.915" height="32.378" fill="#58733B"/>
<rect x="16.189" y="202.902" width="243.915" height="32.378" fill="#58733B"/>
<rect x="16.189" y="252.549" width="243.915" height="32.378" fill="#58733B"/>
<rect x="16.189" y="302.195" width="243.915" height="32.378" fill="#58733B"/>
<rect x="15.5097" y="19.8268" width="244.194" height="314.346" stroke="white" stroke-width="0.8"/>
<path d="M16.189 177H259.564" stroke="white" stroke-width="0.8"/>
<circle cx="137.607" cy="176.46" r="38.9933" stroke="white" stroke-width="0.8"/>
<rect x="61.9183" y="19.8268" width="150.298" height="59.639" stroke="white" stroke-width="0.8"/>
<rect x="105.089" y="19.8268" width="63.9561" height="25.1024" stroke="white" stroke-width="0.8"/>
<mask id="path-13-outside-1_1208_4682" maskUnits="userSpaceOnUse" x="99.4512" y="78.8657" width="76" height="26" fill="black">
<rect fill="white" x="99.4512" y="78.8657" width="76" height="26"/>
<path fill-rule="evenodd" clip-rule="evenodd" d="M173.776 79.8657C167.722 93.8363 153.809 103.61 137.614 103.61C121.418 103.61 107.505 93.8363 101.451 79.8657H173.776Z"/>
</mask>
<path d="M173.776 79.8657L174.51 80.1838L174.995 79.0657H173.776V79.8657ZM101.451 79.8657V79.0657H100.233L100.717 80.1838L101.451 79.8657ZM173.042 79.5476C167.11 93.2361 153.479 102.81 137.614 102.81V104.41C154.139 104.41 168.334 94.4365 174.51 80.1838L173.042 79.5476ZM137.614 102.81C121.748 102.81 108.117 93.2361 102.185 79.5476L100.717 80.1838C106.893 94.4365 121.088 104.41 137.614 104.41V102.81ZM173.776 79.0657H101.451V80.6657H173.776V79.0657Z" fill="white" mask="url(#path-13-outside-1_1208_4682)"/>
<rect x="212.216" y="334.173" width="150.298" height="59.639" transform="rotate(-180 212.216 334.173)" stroke="white" stroke-width="0.8"/>
<rect x="169.045" y="334.173" width="63.9561" height="25.1024" transform="rotate(-180 169.045 334.173)" stroke="white" stroke-width="0.8"/>
<mask id="path-17-outside-2_1208_4682" maskUnits="userSpaceOnUse" x="98.6829" y="249.134" width="76" height="26" fill="black">
<rect fill="white" x="98.6829" y="249.134" width="76" height="26"/>
<path fill-rule="evenodd" clip-rule="evenodd" d="M100.358 274.134C106.412 260.164 120.325 250.39 136.521 250.39C152.716 250.39 166.629 260.164 172.683 274.134L100.358 274.134Z"/>
</mask>
<path d="M100.358 274.134L99.6241 273.816L99.1396 274.934L100.358 274.934L100.358 274.134ZM172.683 274.134L172.683 274.934L173.901 274.934L173.417 273.816L172.683 274.134ZM101.092 274.452C107.024 260.764 120.655 251.19 136.521 251.19L136.521 249.59C119.995 249.59 105.8 259.564 99.6241 273.816L101.092 274.452ZM136.521 251.19C152.386 251.19 166.017 260.764 171.949 274.452L173.417 273.816C167.241 259.564 153.046 249.59 136.521 249.59L136.521 251.19ZM100.358 274.934L172.683 274.934L172.683 273.334L100.358 273.334L100.358 274.934Z" fill="white" mask="url(#path-17-outside-2_1208_4682)"/>
</svg>
