<svg width="30" height="32" viewBox="0 0 16 18" fill="none" xmlns="http://www.w3.org/2000/svg">
<path d="M7.67694 1.27349L1.17694 6.77614C1.06472 6.87114 1 7.01072 1 7.15775V16.5C1 16.7761 1.22386 17 1.5 17H5.75C6.02614 17 6.25 16.7761 6.25 16.5V12.1667C6.25 11.8905 6.47386 11.6667 6.75 11.6667H9.25C9.52614 11.6667 9.75 11.8905 9.75 12.1667V16.5C9.75 16.7761 9.97386 17 10.25 17H14.5C14.7761 17 15 16.7761 15 16.5V7.15775C15 7.01072 14.9353 6.87114 14.8231 6.77614L8.32306 1.27349C8.13661 1.11565 7.86339 1.11565 7.67694 1.27349Z" fill="#C5C5C5" stroke="#C5C5C5" stroke-width="1.3" stroke-linejoin="round"/>
</svg>
